<svg width="26" height="24" viewBox="0 0 26 24" fill="none" xmlns="http://www.w3.org/2000/svg">
    <path d="M20.7534 9.85034C21.9035 11.0086 22.5965 11.9809 22.6099 11.9998C22.6099 11.9998 18.3778 17.9998 13.2993 17.9998C12.978 17.9998 12.6662 17.9855 12.3638 17.9597L20.7534 9.85034Z" fill="#979797"/>
    <path d="M13.2993 6C14.195 6 15.0637 6.18864 15.8882 6.49609L13.2993 9C11.5856 9.00002 10.1963 10.3426 10.1958 11.999L6.60303 15.4717C4.7656 13.8319 3.98877 12 3.98877 12C3.98877 12 6.52801 6.00003 13.2993 6Z" fill="#979797"/>
    <rect opacity="0.3" width="19.3306" height="2.0348" transform="matrix(0.718997 -0.695013 0.718997 0.695013 6.16113 18.4351)" fill="#979797"/>
</svg>
