<svg width="20" height="20" viewBox="0 0 20 20" fill="none" xmlns="http://www.w3.org/2000/svg">
    <path d="M15.8298 9.16479H4.16536C3.24507 9.16479 2.49902 9.91084 2.49902 10.8311V16.6633C2.49902 17.5836 3.24507 18.3297 4.16536 18.3297H15.8298C16.75 18.3297 17.4961 17.5836 17.4961 16.6633V10.8311C17.4961 9.91084 16.75 9.16479 15.8298 9.16479Z" stroke="#99A1AF" stroke-width="1.66634" stroke-linecap="round" stroke-linejoin="round"/>
    <path d="M5.83203 9.16479V5.83211C5.83203 4.72726 6.27093 3.66766 7.05218 2.88641C7.83343 2.10516 8.89303 1.66626 9.99788 1.66626C11.1027 1.66626 12.1623 2.10516 12.9436 2.88641C13.7248 3.66766 14.1637 4.72726 14.1637 5.83211V9.16479" stroke="#99A1AF" stroke-width="1.66634" stroke-linecap="round" stroke-linejoin="round"/>
</svg>
