<svg width="16" height="16" viewBox="0 0 16 16" fill="none" xmlns="http://www.w3.org/2000/svg">
    <g clip-path="url(#clip0_97_3711)">
        <path d="M7.69989 2.17481C7.72864 2.12261 7.77086 2.07907 7.82217 2.04876C7.87347 2.01844 7.93198 2.00244 7.99157 2.00244C8.05116 2.00244 8.10967 2.01844 8.16097 2.04876C8.21228 2.07907 8.2545 2.12261 8.28325 2.17481L10.2491 5.90666C10.2959 5.99307 10.3614 6.06803 10.4406 6.12616C10.5199 6.18429 10.6111 6.22414 10.7076 6.24286C10.8041 6.26157 10.9036 6.25869 10.9988 6.23441C11.0941 6.21013 11.1828 6.16506 11.2586 6.10244L14.1068 3.66249C14.1614 3.61802 14.2288 3.59205 14.2992 3.58831C14.3696 3.58457 14.4393 3.60325 14.4984 3.64168C14.5575 3.6801 14.6028 3.73628 14.628 3.80213C14.6531 3.86798 14.6567 3.9401 14.6382 4.00811L12.7509 10.8312C12.7124 10.9708 12.6294 11.0941 12.5145 11.1823C12.3997 11.2705 12.2591 11.3188 12.1143 11.32H3.86949C3.72454 11.319 3.58388 11.2707 3.46887 11.1825C3.35385 11.0942 3.27075 10.9709 3.2322 10.8312L1.34563 4.00877C1.32716 3.94076 1.33073 3.86864 1.35585 3.80279C1.38097 3.73695 1.42633 3.68077 1.48541 3.64234C1.54449 3.60392 1.61424 3.58523 1.68462 3.58897C1.75499 3.59271 1.82237 3.61869 1.87704 3.66316L4.72454 6.10311C4.80032 6.16573 4.88903 6.2108 4.98429 6.23508C5.07956 6.25936 5.17902 6.26224 5.27553 6.24352C5.37204 6.22481 5.46321 6.18495 5.54249 6.12683C5.62177 6.0687 5.6872 5.99374 5.73408 5.90732L7.69989 2.17481Z" stroke="white" stroke-width="1.33185" stroke-linecap="round" stroke-linejoin="round"/>
        <path d="M3.33008 13.9844H12.653" stroke="white" stroke-width="1.33185" stroke-linecap="round" stroke-linejoin="round"/>
    </g>
    <defs>
        <clipPath id="clip0_97_3711">
            <rect width="15.9822" height="15.9822" fill="white"/>
        </clipPath>
    </defs>
</svg>
