<svg width="24" height="24" viewBox="0 0 24 24" fill="none" xmlns="http://www.w3.org/2000/svg">
    <path d="M8.99707 17.9938V4.99833L20.9929 2.99902V15.9945" stroke="#99A1AF" stroke-width="1.9993" stroke-linecap="round" stroke-linejoin="round"/>
    <path d="M5.99798 20.9925C7.65426 20.9925 8.99693 19.6499 8.99693 17.9936C8.99693 16.3373 7.65426 14.9946 5.99798 14.9946C4.3417 14.9946 2.99902 16.3373 2.99902 17.9936C2.99902 19.6499 4.3417 20.9925 5.99798 20.9925Z" stroke="#99A1AF" stroke-width="1.9993" stroke-linecap="round" stroke-linejoin="round"/>
    <path d="M17.9941 18.9935C19.6503 18.9935 20.993 17.6508 20.993 15.9946C20.993 14.3383 19.6503 12.9956 17.9941 12.9956C16.3378 12.9956 14.9951 14.3383 14.9951 15.9946C14.9951 17.6508 16.3378 18.9935 17.9941 18.9935Z" stroke="#99A1AF" stroke-width="1.9993" stroke-linecap="round" stroke-linejoin="round"/>
</svg>
