<svg width="24" height="24" viewBox="0 0 24 24" fill="none" xmlns="http://www.w3.org/2000/svg">
    <path d="M10.2646 20.9927C10.4401 21.2966 10.6925 21.549 10.9964 21.7244C11.3004 21.8999 11.6451 21.9922 11.996 21.9922C12.347 21.9922 12.6917 21.8999 12.9957 21.7244C13.2996 21.549 13.552 21.2966 13.7274 20.9927" stroke="#99A1AF" stroke-width="1.9993" stroke-linecap="round" stroke-linejoin="round"/>
    <path d="M3.26118 15.3209C3.13059 15.464 3.04441 15.642 3.01312 15.8332C2.98183 16.0244 3.00679 16.2206 3.08495 16.3979C3.16311 16.5752 3.2911 16.7259 3.45337 16.8318C3.61563 16.9377 3.80517 16.9941 3.99892 16.9943H19.9934C20.1871 16.9944 20.3767 16.9381 20.539 16.8325C20.7014 16.7268 20.8296 16.5762 20.9079 16.399C20.9863 16.2218 21.0115 16.0257 20.9804 15.8345C20.9494 15.6433 20.8635 15.4652 20.7331 15.3219C19.4036 13.9513 17.994 12.4949 17.994 7.99742C17.994 6.40668 17.3621 4.88109 16.2373 3.75626C15.1125 2.63143 13.5869 1.99951 11.9961 1.99951C10.4054 1.99951 8.8798 2.63143 7.75497 3.75626C6.63015 4.88109 5.99823 6.40668 5.99823 7.99742C5.99823 12.4949 4.58772 13.9513 3.26118 15.3209Z" stroke="#99A1AF" stroke-width="1.9993" stroke-linecap="round" stroke-linejoin="round"/>
</svg>
