<svg width="385" height="435" viewBox="0 0 385 435" fill="none" xmlns="http://www.w3.org/2000/svg">
    <path d="M24.5879 0.00192641C24.8619 0.00370207 25.1358 0.00547773 25.418 0.0073072C32.8312 0.0867118 39.0479 1.75499 45.784 4.71119C46.6743 5.07741 47.4799 5.36729 48.4184 5.55777C48.4184 5.80021 48.4184 6.04265 48.4184 6.29243C48.6305 6.34546 48.8427 6.3985 49.0612 6.45314C49.8265 6.64445 50.5918 6.83577 51.357 7.02709C51.357 7.26952 51.357 7.51196 51.357 7.76174C51.554 7.79963 51.751 7.83751 51.9539 7.87653C53.0559 8.19553 54.0157 8.70071 55.0303 9.23106C55.0303 9.4735 55.0303 9.71593 55.0303 9.96572C55.5152 9.96572 56.0001 9.96572 56.4996 9.96572C56.4996 10.2082 56.4996 10.4506 56.4996 10.7004C56.7477 10.7255 56.9959 10.7506 57.2515 10.7764C58.7152 11.1695 59.7659 11.9291 60.9994 12.7896C61.4877 13.124 61.976 13.4583 62.4644 13.7925C62.7 13.9551 62.9357 14.1177 63.1784 14.2852C64.3091 15.0569 65.4664 15.7877 66.6227 16.5202C66.7974 16.6604 66.9721 16.8006 67.1521 16.945C67.1521 17.1874 67.1521 17.4298 67.1521 17.6796C67.4325 17.7857 67.7128 17.8917 68.0016 18.001C68.9888 18.4143 68.9888 18.4143 70.0908 19.1489C70.0908 19.3914 70.0908 19.6338 70.0908 19.8836C70.6969 20.126 71.303 20.3685 71.9274 20.6182C71.9274 20.8607 71.9274 21.1031 71.9274 21.3529C72.5335 21.5953 73.1396 21.8378 73.7641 22.0876C73.7641 22.33 73.7641 22.5724 73.7641 22.8222C74.0065 22.8222 74.2489 22.8222 74.4987 22.8222C74.4987 23.0647 74.4987 23.3071 74.4987 23.5569C75.1048 23.7993 75.7109 24.0417 76.3354 24.2915C76.3354 24.534 76.3354 24.7764 76.3354 25.0262C76.5778 25.0262 76.8202 25.0262 77.07 25.0262C77.07 25.2686 77.07 25.5111 77.07 25.7608C77.3125 25.7608 77.5549 25.7608 77.8047 25.7608C77.8047 26.0033 77.8047 26.2457 77.8047 26.4955C78.2896 26.6167 78.7744 26.7379 79.274 26.8628C79.274 27.1053 79.274 27.3477 79.274 27.5975C79.4842 27.6922 79.6945 27.7869 79.9111 27.8845C80.8209 28.3739 81.5272 28.9384 82.3045 29.6178C82.5639 29.8413 82.8234 30.0648 83.0908 30.2951C83.6819 30.9034 83.6819 30.9034 83.6819 31.6381C83.9244 31.6381 84.1668 31.6381 84.4166 31.6381C84.4166 31.8805 84.4166 32.123 84.4166 32.3728C84.7803 32.494 85.1439 32.6152 85.5186 32.7401C85.5186 32.9825 85.5186 33.225 85.5186 33.4747C86.0035 33.7172 86.4883 33.9596 86.9879 34.2094C86.9879 34.4518 86.9879 34.6943 86.9879 34.9441C87.2303 34.9441 87.4728 34.9441 87.7226 34.9441C87.7226 35.1865 87.7226 35.4289 87.7226 35.6787C87.965 35.6787 88.2074 35.6787 88.4572 35.6787C88.4572 35.9212 88.4572 36.1636 88.4572 36.4134C88.6996 36.4134 88.9421 36.4134 89.1919 36.4134C89.1919 36.6558 89.1919 36.8983 89.1919 37.148C89.4343 37.148 89.6767 37.148 89.9265 37.148C90.522 37.7521 90.522 37.7521 91.1892 38.5485C92.1207 39.6549 92.1207 39.6549 93.1306 40.6879C93.5998 41.1886 93.5998 41.1886 93.5998 41.9233C93.8422 41.9233 94.0847 41.9233 94.3345 41.9233C94.3345 42.1657 94.3345 42.4082 94.3345 42.658C94.5769 42.658 94.8193 42.658 95.0691 42.658C95.7837 43.4357 95.7837 43.4357 96.5844 44.4487C96.8505 44.7811 97.1166 45.1135 97.3908 45.456C98.0078 46.3313 98.0078 46.3313 98.0078 47.0659C98.2502 47.0659 98.4926 47.0659 98.7424 47.0659C98.7424 47.3083 98.7424 47.5508 98.7424 47.8006C98.9848 47.8006 99.2273 47.8006 99.4771 47.8006C100.946 49.7885 100.946 49.7885 100.946 50.7392C101.189 50.7392 101.431 50.7392 101.681 50.7392C101.681 50.9816 101.681 51.2241 101.681 51.4739C101.923 51.4739 102.166 51.4739 102.416 51.4739C103.885 53.4618 103.885 53.4618 103.885 54.4125C104.127 54.4125 104.37 54.4125 104.62 54.4125C105.254 55.1902 105.254 55.1902 105.951 56.2032C106.183 56.5356 106.415 56.868 106.654 57.2105C107.191 58.0858 107.191 58.0858 107.191 58.8204C107.433 58.8204 107.676 58.8204 107.926 58.8204C107.926 59.1841 107.926 59.5477 107.926 59.9224C108.168 59.9224 108.41 59.9224 108.66 59.9224C110.13 61.9103 110.13 61.9103 110.13 62.861C110.372 62.861 110.614 62.861 110.864 62.861C111.107 63.5884 111.349 64.3157 111.599 65.065C111.841 65.065 112.084 65.065 112.334 65.065C113.068 66.167 113.068 66.167 113.068 67.269C113.311 67.269 113.553 67.269 113.803 67.269C114.357 68.0467 114.357 68.0467 114.951 69.0597C115.248 69.5583 115.248 69.5583 115.551 70.067C116.007 70.9423 116.007 70.9423 116.007 71.6769C116.249 71.6769 116.492 71.6769 116.742 71.6769C117.707 72.9472 118.489 74.3517 119.313 75.7175C119.471 75.9771 119.629 76.2366 119.792 76.504C120.301 77.3419 120.806 78.1823 121.31 79.0235C121.475 79.296 121.64 79.5685 121.81 79.8492C122.039 80.236 122.039 80.236 122.273 80.6306C122.41 80.8607 122.548 81.0908 122.69 81.3279C122.986 81.9621 122.986 81.9621 122.986 83.0641C123.229 83.0641 123.471 83.0641 123.721 83.0641C123.721 83.549 123.721 84.0339 123.721 84.5334C123.963 84.5334 124.206 84.5334 124.455 84.5334C125.925 86.967 125.925 86.967 125.925 88.2067C126.167 88.2067 126.41 88.2067 126.659 88.2067C127.167 89.1322 127.673 90.0586 128.177 90.9861C128.536 91.6452 128.895 92.3042 129.256 92.9617C129.663 93.702 130.067 94.4438 130.47 95.186C130.668 95.5422 130.668 95.5422 130.869 95.9056C131.442 96.9664 131.802 97.6341 131.802 98.8592C132.044 98.8592 132.287 98.8592 132.537 98.8592C132.998 99.9267 133.271 100.621 133.271 101.798C133.514 101.798 133.756 101.798 134.006 101.798C134.154 102.15 134.301 102.502 134.454 102.865C135.176 104.552 135.969 106.204 136.761 107.859C137.317 109.02 137.869 110.182 138.414 111.348C138.529 111.592 138.644 111.836 138.763 112.087C139.317 113.307 139.516 114.017 139.516 115.389C139.758 115.389 140.001 115.389 140.251 115.389C140.362 115.665 140.473 115.94 140.588 116.224C141.483 118.411 142.425 120.545 143.515 122.642C144.245 124.12 144.658 125.101 144.658 126.776C144.901 126.776 145.143 126.776 145.393 126.776C145.484 127.064 145.575 127.352 145.669 127.649C146.133 128.996 146.654 130.309 147.187 131.63C147.853 133.291 148.494 134.961 149.13 136.634C149.353 137.218 149.578 137.802 149.803 138.386C151.435 142.616 153 146.834 154.231 151.201C154.596 152.487 154.976 153.72 155.521 154.943C156.017 156.097 156.326 157.166 156.597 158.389C156.883 159.603 157.134 160.545 157.722 161.649C158.42 163.138 158.565 164.583 158.792 166.204C158.998 167.646 159.228 169.079 159.489 170.511C159.568 170.963 159.647 171.414 159.728 171.879C160.121 173.174 160.498 173.703 161.556 174.529C161.919 174.65 162.283 174.771 162.658 174.896C162.658 175.139 162.658 175.381 162.658 175.631C162.9 175.631 163.142 175.631 163.392 175.631C163.392 175.873 163.392 176.116 163.392 176.366C163.612 176.472 163.832 176.578 164.058 176.687C164.862 177.1 164.862 177.1 165.964 177.835C165.964 178.077 165.964 178.32 165.964 178.57C166.174 178.657 166.384 178.744 166.601 178.834C167.612 179.406 168.229 180.085 168.994 180.957C169.383 181.395 169.383 181.395 169.78 181.841C170.371 182.61 170.371 182.61 170.371 183.345C170.614 183.345 170.856 183.345 171.106 183.345C172.575 184.944 172.575 184.944 172.575 186.283C172.818 186.283 173.06 186.283 173.31 186.283C173.864 186.968 173.864 186.968 174.458 187.868C174.656 188.162 174.854 188.456 175.058 188.759C175.514 189.589 175.514 189.589 175.514 190.691C175.757 190.691 175.999 190.691 176.249 190.691C176.686 191.478 177.123 192.265 177.559 193.052C177.896 193.657 178.235 194.261 178.578 194.863C179.505 196.501 180.303 198.133 181.024 199.875C181.314 200.503 181.605 201.13 181.896 201.757C182.775 203.679 183.543 205.632 184.288 207.609C184.544 208.286 184.811 208.96 185.092 209.627C185.45 210.575 185.659 211.484 185.845 212.479C185.907 212.803 185.968 213.127 186.032 213.461C186.076 213.705 186.121 213.949 186.167 214.2C186.409 214.2 186.651 214.2 186.901 214.2C186.888 213.922 186.876 213.643 186.863 213.355C186.853 212.99 186.843 212.625 186.832 212.249C186.813 211.706 186.813 211.706 186.794 211.151C186.901 210.16 186.901 210.16 187.411 209.478C188.003 209.058 188.003 209.058 188.738 209.058C188.714 209.787 188.69 210.517 188.666 211.246C188.689 212.112 188.689 212.112 189.473 213.098C190.528 209.561 190.528 209.561 191.149 205.936C191.297 204.746 191.602 203.906 192.11 202.83C192.497 201.864 192.723 200.888 192.962 199.875C193.367 198.172 193.888 196.686 194.615 195.099C194.752 194.613 194.884 194.125 194.983 193.63C195.225 193.63 195.467 193.63 195.717 193.63C195.774 193.255 195.774 193.255 195.832 192.872C196.5 190.02 198.074 187.409 199.39 184.814C199.633 184.814 199.875 184.814 200.125 184.814C200.169 184.597 200.213 184.38 200.258 184.156C200.5 183.319 200.794 182.813 201.306 182.115C201.467 181.893 201.628 181.671 201.795 181.441C201.963 181.213 202.132 180.985 202.306 180.751C202.639 180.295 202.971 179.839 203.303 179.383C203.588 178.993 203.873 178.604 204.166 178.202C204.408 177.839 204.651 177.475 204.9 177.1C205.143 177.1 205.385 177.1 205.635 177.1C205.635 176.858 205.635 176.615 205.635 176.366C205.877 176.366 206.12 176.366 206.37 176.366C206.37 176.123 206.37 175.881 206.37 175.631C206.612 175.631 206.855 175.631 207.104 175.631C207.104 175.388 207.104 175.146 207.104 174.896C207.347 174.896 207.589 174.896 207.839 174.896C207.839 174.654 207.839 174.411 207.839 174.162C208.443 173.647 208.443 173.647 209.239 173.083C210.989 171.836 211.975 171.066 212.467 168.894C212.731 167.145 212.804 165.382 212.891 163.617C212.982 162.407 212.982 162.407 213.349 161.305C213.398 160.81 213.431 160.313 213.452 159.816C213.466 159.529 213.48 159.243 213.494 158.948C213.513 158.501 213.513 158.501 213.533 158.045C213.558 157.457 213.585 156.868 213.613 156.28C213.63 155.89 213.63 155.89 213.647 155.491C213.716 154.693 213.716 154.693 213.902 153.789C214.084 152.857 214.141 151.997 214.161 151.049C214.171 150.705 214.18 150.362 214.19 150.008C214.201 149.645 214.211 149.282 214.221 148.908C214.334 145.723 214.656 142.688 215.277 139.565C215.528 138.288 215.725 137.02 215.897 135.73C216.586 130.762 217.404 125.789 218.596 120.916C218.905 119.601 219.157 118.277 219.41 116.95C219.757 115.181 220.174 113.52 220.787 111.828C221.134 110.762 221.371 109.687 221.614 108.593C222.119 106.33 222.741 104.158 223.636 102.017C224.016 101.025 224.267 100.055 224.507 99.02C225.183 96.246 226.016 93.5396 227.147 90.9158C227.829 89.315 228.302 87.6748 228.777 86.0027C229.019 86.0027 229.262 86.0027 229.511 86.0027C229.564 85.7324 229.616 85.462 229.669 85.1834C230.744 79.9644 233.18 75.1642 235.716 70.5189C236.557 68.9749 237.292 67.4263 237.96 65.7997C238.202 65.7997 238.445 65.7997 238.695 65.7997C238.736 65.597 238.777 65.3943 238.819 65.1855C239.104 64.1832 239.528 63.3284 240.003 62.4019C240.17 62.0742 240.338 61.7465 240.51 61.4089C240.638 61.1608 240.766 60.9127 240.899 60.6571C241.141 60.6571 241.383 60.6571 241.633 60.6571C241.876 59.9298 242.118 59.2024 242.368 58.4531C242.61 58.4531 242.853 58.4531 243.103 58.4531C243.103 58.0894 243.103 57.7258 243.103 57.3511C243.345 57.3511 243.587 57.3511 243.837 57.3511C243.943 57.0708 244.049 56.7905 244.159 56.5017C244.572 55.5145 244.572 55.5145 245.307 54.4125C245.549 54.4125 245.791 54.4125 246.041 54.4125C246.284 53.6852 246.526 52.9579 246.776 52.2085C247.018 52.2085 247.261 52.2085 247.511 52.2085C247.632 51.7236 247.753 51.2388 247.878 50.7392C248.12 50.7392 248.363 50.7392 248.613 50.7392C248.613 50.4968 248.613 50.2543 248.613 50.0045C248.855 50.0045 249.097 50.0045 249.347 50.0045C249.437 49.7986 249.526 49.5926 249.618 49.3804C251.043 46.7833 253.683 44.1949 255.959 42.2906C256.202 42.2906 256.444 42.2906 256.694 42.2906C256.694 42.0482 256.694 41.8058 256.694 41.556C258.293 40.0867 258.293 40.0867 259.632 40.0867C259.632 39.8442 259.632 39.6018 259.632 39.352C259.875 39.352 260.117 39.352 260.367 39.352C260.367 39.1096 260.367 38.8671 260.367 38.6173C263.134 36.5182 266.156 34.5842 269.437 33.4202C270.851 32.8987 272.23 32.2957 273.617 31.7055C276.129 30.6907 278.487 30.2647 281.167 29.9392C281.541 29.89 281.914 29.8407 282.299 29.79C286.42 29.2782 290.37 29.3624 294.483 29.8933C294.866 29.9421 295.249 29.9908 295.643 30.0411C299.623 30.5799 303.28 31.6503 307.018 33.1074C308.117 33.4846 309.219 33.8489 310.324 34.2094C310.324 34.4518 310.324 34.6943 310.324 34.9441C310.536 34.9938 310.748 35.0435 310.967 35.0947C312.776 35.5691 314.556 36.2568 316.201 37.148C316.201 37.3905 316.201 37.6329 316.201 37.8827C316.686 37.8827 317.171 37.8827 317.67 37.8827C317.67 38.1251 317.67 38.3676 317.67 38.6173C317.873 38.6576 318.077 38.6978 318.286 38.7393C320.975 39.512 323.433 41.3149 325.721 42.8818C326.802 43.6035 327.921 44.2331 329.057 44.8619C329.057 45.1044 329.057 45.3468 329.057 45.5966C329.338 45.7027 329.618 45.8087 329.907 45.918C330.894 46.3313 330.894 46.3313 331.996 47.0659C331.996 47.3083 331.996 47.5508 331.996 47.8006C332.905 48.1642 332.905 48.1642 333.833 48.5352C333.833 48.7777 333.833 49.0201 333.833 49.2699C334.742 49.6335 334.742 49.6335 335.669 50.0045C335.669 50.247 335.669 50.4894 335.669 50.7392C336.579 51.1029 336.579 51.1029 337.506 51.4739C337.506 51.7163 337.506 51.9587 337.506 52.2085C337.748 52.2085 337.991 52.2085 338.241 52.2085C338.241 52.4509 338.241 52.6934 338.241 52.9432C338.483 52.9432 338.726 52.9432 338.975 52.9432C338.975 53.1856 338.975 53.428 338.975 53.6778C339.218 53.6778 339.46 53.6778 339.71 53.6778C339.71 53.9203 339.71 54.1627 339.71 54.4125C339.913 54.4996 340.115 54.5867 340.324 54.6765C341.388 55.2619 342.206 55.988 343.108 56.8001C343.435 57.0918 343.763 57.3835 344.101 57.684C344.853 58.4531 344.853 58.4531 344.853 59.1878C345.095 59.1878 345.337 59.1878 345.587 59.1878C345.587 59.4302 345.587 59.6726 345.587 59.9224C345.83 59.9224 346.072 59.9224 346.322 59.9224C346.322 60.1649 346.322 60.4073 346.322 60.6571C346.564 60.6571 346.807 60.6571 347.057 60.6571C347.057 60.8995 347.057 61.1419 347.057 61.3917C347.299 61.3917 347.541 61.3917 347.791 61.3917C349.628 63.4033 349.628 63.4033 349.628 64.3304C349.87 64.3304 350.113 64.3304 350.363 64.3304C350.916 64.9474 350.916 64.9474 351.51 65.7538C351.708 66.018 351.906 66.2822 352.11 66.5544C352.567 67.269 352.567 67.269 352.567 68.0036C352.809 68.0036 353.051 68.0036 353.301 68.0036C354.77 69.9915 354.77 69.9915 354.77 70.9423C355.013 70.9423 355.255 70.9423 355.505 70.9423C355.505 71.1847 355.505 71.4271 355.505 71.6769C355.748 71.6769 355.99 71.6769 356.24 71.6769C356.482 72.4042 356.725 73.1316 356.974 73.8809C357.217 73.8809 357.459 73.8809 357.709 73.8809C358.263 74.5783 358.263 74.5783 358.857 75.488C359.055 75.7863 359.253 76.0846 359.457 76.3919C359.913 77.1869 359.913 77.1869 359.913 77.9215C360.156 77.9215 360.398 77.9215 360.648 77.9215C360.781 78.1748 360.915 78.4282 361.052 78.6892C361.939 80.3461 362.824 81.9637 363.908 83.5003C366.197 86.847 367.839 90.6986 369.461 94.4011C369.845 95.2653 369.845 95.2653 370.566 96.2879C370.612 97.2751 370.612 97.2751 370.566 98.1246C370.808 98.1246 371.05 98.1246 371.3 98.1246C371.3 98.6095 371.3 99.0943 371.3 99.5939C371.543 99.5939 371.785 99.5939 372.035 99.5939C372.129 99.888 372.129 99.888 372.224 100.188C372.83 102.051 373.508 103.868 374.248 105.682C374.581 106.51 374.895 107.342 375.203 108.18C375.644 109.425 375.644 109.425 376.077 110.209C376.499 111.1 376.706 111.948 376.925 112.91C377.36 114.725 377.886 116.486 378.463 118.259C379.268 120.779 379.855 123.291 380.323 125.898C380.514 126.943 380.717 127.987 380.92 129.03C384.262 146.389 385.569 165.588 382.487 183.113C382.301 184.191 382.13 185.27 381.96 186.351C381.835 187.132 381.711 187.913 381.585 188.694C381.529 189.052 381.472 189.411 381.414 189.78C381.064 191.905 380.597 193.956 379.995 196.025C379.753 196.922 379.581 197.811 379.427 198.727C379.091 200.289 378.468 201.096 377.178 202.079C374.64 202.995 371.184 202.396 368.753 201.345C368.503 201.224 368.252 201.102 367.994 200.977C367.511 200.743 367.511 200.743 367.017 200.505C365.868 199.937 364.728 199.355 363.586 198.773C362.638 198.296 361.689 197.823 360.74 197.349C360.298 197.128 359.856 196.907 359.414 196.686C359.094 196.526 358.774 196.366 358.444 196.201C358.444 195.959 358.444 195.716 358.444 195.467C358.235 195.364 358.027 195.262 357.812 195.157C354.867 193.664 352.389 191.845 349.908 189.688C348.925 188.837 348.925 188.837 347.844 188.239C347.584 188.079 347.324 187.918 347.057 187.753C347.057 187.51 347.057 187.268 347.057 187.018C346.572 186.776 346.087 186.533 345.587 186.283C345.587 186.041 345.587 185.799 345.587 185.549C345.27 185.407 345.27 185.407 344.947 185.263C344.039 184.771 343.365 184.2 342.603 183.506C341.598 182.582 341.598 182.582 340.445 181.876C340.445 181.633 340.445 181.391 340.445 181.141C340.202 181.073 339.96 181.004 339.71 180.934C338.142 180.183 336.866 179.094 335.669 177.835C335.669 177.592 335.669 177.35 335.669 177.1C335.415 177.014 335.161 176.927 334.899 176.838C333.405 176.176 332.158 175.209 330.859 174.231C329.529 173.27 328.489 172.833 326.854 172.692C326.755 172.904 326.657 173.117 326.555 173.335C326.119 174.162 326.119 174.162 325.545 174.873C324.941 175.74 324.794 176.431 324.65 177.468C324.407 177.468 324.165 177.468 323.915 177.468C323.786 177.899 323.657 178.331 323.525 178.776C322.237 182.645 320.256 186.332 318.405 189.957C318.163 189.957 317.92 189.957 317.67 189.957C317.636 190.156 317.601 190.355 317.566 190.559C317.225 191.682 316.669 192.549 316.04 193.538C315.7 194.081 315.7 194.081 315.353 194.634C315.148 194.909 314.943 195.184 314.732 195.467C314.489 195.467 314.247 195.467 313.997 195.467C313.755 196.194 313.512 196.921 313.262 197.671C313.02 197.671 312.777 197.671 312.528 197.671C312.285 198.398 312.043 199.125 311.793 199.875C311.551 199.875 311.308 199.875 311.058 199.875C311.058 200.117 311.058 200.36 311.058 200.609C310.816 200.609 310.574 200.609 310.324 200.609C310.271 200.837 310.218 201.064 310.163 201.298C309.956 202.079 309.956 202.079 309.589 202.813C309.347 202.813 309.104 202.813 308.854 202.813C308.801 203.041 308.748 203.268 308.694 203.502C308.487 204.283 308.487 204.283 308.12 205.017C307.877 205.017 307.635 205.017 307.385 205.017C307.385 205.381 307.385 205.745 307.385 206.119C307.143 206.119 306.9 206.119 306.65 206.119C306.575 206.422 306.499 206.725 306.421 207.038C305.984 208.15 305.62 208.781 304.906 209.701C304.037 210.82 303.217 211.952 302.449 213.144C302.26 213.433 302.071 213.722 301.877 214.02C301.183 215.741 301.983 217.577 302.442 219.311C303.087 222.076 303.127 224.735 303.092 227.562C303.093 228.045 303.094 228.527 303.096 229.024C303.083 231.348 302.941 233.275 302.242 235.506C302.05 236.442 301.881 237.38 301.714 238.322C301.506 239.188 301.178 239.859 300.773 240.648C300.633 241.379 300.506 242.114 300.406 242.852C300.163 242.852 299.921 242.852 299.671 242.852C299.622 243.062 299.574 243.273 299.523 243.489C299.306 244.313 299.035 245.088 298.73 245.883C298.581 246.272 298.581 246.272 298.43 246.669C298.355 246.864 298.279 247.059 298.202 247.26C297.959 247.26 297.717 247.26 297.467 247.26C297.467 247.745 297.467 248.23 297.467 248.729C297.225 248.729 296.982 248.729 296.733 248.729C296.733 249.093 296.733 249.457 296.733 249.831C296.49 249.831 296.248 249.831 295.998 249.831C295.998 250.316 295.998 250.801 295.998 251.301C295.755 251.301 295.513 251.301 295.263 251.301C295.157 251.581 295.051 251.861 294.942 252.15C294.529 253.137 294.529 253.137 293.794 254.239C293.551 254.239 293.309 254.239 293.059 254.239C293.006 254.467 292.953 254.694 292.899 254.928C292.692 255.709 292.692 255.709 292.325 256.443C292.082 256.443 291.84 256.443 291.59 256.443C291.59 256.686 291.59 256.928 291.59 257.178C291.348 257.178 291.105 257.178 290.855 257.178C290.734 257.663 290.613 258.148 290.488 258.647C290.246 258.647 290.003 258.647 289.753 258.647C289.753 258.89 289.753 259.132 289.753 259.382C289.511 259.382 289.268 259.382 289.019 259.382C289.019 259.624 289.019 259.867 289.019 260.117C288.776 260.117 288.534 260.117 288.284 260.117C288.284 260.359 288.284 260.601 288.284 260.851C288.042 260.851 287.799 260.851 287.549 260.851C287.458 261.078 287.368 261.306 287.274 261.54C286.739 262.449 286.308 262.67 285.345 263.055C285.345 263.298 285.345 263.54 285.345 263.79C285.103 263.79 284.86 263.79 284.611 263.79C284.611 264.032 284.611 264.275 284.611 264.524C284.368 264.524 284.126 264.524 283.876 264.524C283.876 264.767 283.876 265.009 283.876 265.259C283.634 265.259 283.391 265.259 283.141 265.259C283.141 265.502 283.141 265.744 283.141 265.994C281.13 267.83 281.13 267.83 280.203 267.83C280.203 268.073 280.203 268.315 280.203 268.565C279.505 269.119 279.505 269.119 278.596 269.713C278.297 269.911 277.999 270.109 277.692 270.313C276.897 270.769 276.897 270.769 276.162 270.769C276.162 271.011 276.162 271.254 276.162 271.504C275.798 271.504 275.435 271.504 275.06 271.504C275.06 271.746 275.06 271.989 275.06 272.238C273.958 272.973 273.958 272.973 272.856 272.973C272.856 273.215 272.856 273.458 272.856 273.708C272.493 273.708 272.129 273.708 271.754 273.708C271.754 273.95 271.754 274.193 271.754 274.442C271.391 274.442 271.027 274.442 270.652 274.442C270.652 274.685 270.652 274.927 270.652 275.177C270.046 275.419 269.44 275.662 268.816 275.912C268.816 276.154 268.816 276.397 268.816 276.646C268.331 276.646 267.846 276.646 267.346 276.646C267.346 276.889 267.346 277.131 267.346 277.381C266.983 277.502 266.619 277.623 266.244 277.748C266.457 277.758 266.67 277.767 266.89 277.776C267.861 277.819 268.832 277.864 269.803 277.909C270.305 277.931 270.305 277.931 270.818 277.953C271.306 277.976 271.306 277.976 271.804 277.999C272.103 278.013 272.401 278.026 272.708 278.04C273.636 278.119 274.515 278.298 275.427 278.483C275.933 278.529 276.44 278.563 276.947 278.586C277.356 278.607 277.356 278.607 277.773 278.628C278.341 278.654 278.909 278.68 279.477 278.705C281.597 278.813 281.597 278.813 282.407 279.218C282.987 279.319 283.569 279.404 284.153 279.482C284.497 279.529 284.841 279.575 285.195 279.624C285.924 279.72 286.653 279.817 287.382 279.914C287.726 279.96 288.069 280.007 288.423 280.056C288.74 280.097 289.056 280.139 289.382 280.183C290.121 280.32 290.121 280.32 290.488 280.687C291.352 280.868 292.214 281.034 293.082 281.192C295.139 281.584 296.998 282.102 298.937 282.891C299.57 283.079 300.206 283.263 300.842 283.442C302.201 283.84 303.243 284.343 304.446 285.095C305.018 285.323 305.592 285.544 306.168 285.761C308.159 286.536 310.074 287.488 311.793 288.768C311.793 289.011 311.793 289.253 311.793 289.503C312.006 289.601 312.219 289.699 312.439 289.8C315.072 291.199 317.008 293.516 318.405 296.115C318.405 296.357 318.405 296.6 318.405 296.849C318.647 296.849 318.89 296.849 319.14 296.849C319.379 297.599 319.615 298.349 319.851 299.099C319.983 299.517 320.116 299.935 320.252 300.365C322.697 308.989 320.727 319.038 316.936 326.97C316.686 327.581 316.439 328.192 316.201 328.807C315.959 328.807 315.716 328.807 315.466 328.807C315.224 329.534 314.981 330.262 314.732 331.011C314.489 331.011 314.247 331.011 313.997 331.011C313.755 331.738 313.512 332.466 313.262 333.215C313.02 333.215 312.777 333.215 312.528 333.215C312.528 333.457 312.528 333.7 312.528 333.95C312.285 333.95 312.043 333.95 311.793 333.95C311.793 334.192 311.793 334.434 311.793 334.684C311.551 334.684 311.308 334.684 311.058 334.684C311.058 334.927 311.058 335.169 311.058 335.419C310.816 335.419 310.574 335.419 310.324 335.419C310.185 335.738 310.185 335.738 310.044 336.063C309.532 336.992 308.951 337.599 308.189 338.335C307.925 338.591 307.662 338.847 307.391 339.111C307.146 339.347 306.902 339.583 306.65 339.827C306.34 340.145 306.029 340.463 305.709 340.791C304.794 341.683 303.839 342.503 302.864 343.327C302.322 343.798 301.809 344.301 301.301 344.809C300.31 345.8 299.309 346.68 298.202 347.541C297.959 347.541 297.717 347.541 297.467 347.541C297.467 347.783 297.467 348.026 297.467 348.275C297.225 348.275 296.982 348.275 296.733 348.275C296.733 348.518 296.733 348.76 296.733 349.01C296.49 349.01 296.248 349.01 295.998 349.01C295.998 349.252 295.998 349.495 295.998 349.745C295.755 349.745 295.513 349.745 295.263 349.745C295.263 349.987 295.263 350.23 295.263 350.479C295.021 350.479 294.778 350.479 294.529 350.479C294.529 350.722 294.529 350.964 294.529 351.214C294.286 351.214 294.044 351.214 293.794 351.214C293.794 351.456 293.794 351.699 293.794 351.949C293.551 351.949 293.309 351.949 293.059 351.949C293.059 352.312 293.059 352.676 293.059 353.051C292.817 353.051 292.574 353.051 292.325 353.051C292.082 353.657 291.84 354.263 291.59 354.887C291.348 354.887 291.105 354.887 290.855 354.887C290.757 355.099 290.658 355.312 290.557 355.53C290.11 356.377 289.642 357.099 289.019 357.826C288.776 357.826 288.534 357.826 288.284 357.826C288.186 358.106 288.087 358.387 287.986 358.675C287.562 359.634 287.187 360.057 286.447 360.765C286.326 361.128 286.205 361.492 286.08 361.867C285.838 361.867 285.595 361.867 285.345 361.867C285.103 362.594 284.86 363.321 284.611 364.071C284.368 364.071 284.126 364.071 283.876 364.071C283.634 364.798 283.391 365.525 283.141 366.275C282.899 366.275 282.657 366.275 282.407 366.275C282.164 367.002 281.922 367.729 281.672 368.478C281.43 368.478 281.187 368.478 280.937 368.478C280.937 368.721 280.937 368.963 280.937 369.213C280.695 369.213 280.453 369.213 280.203 369.213C280.165 369.425 280.127 369.637 280.088 369.856C279.795 370.813 279.398 371.407 278.733 372.152C278.491 372.152 278.249 372.152 277.999 372.152C277.999 372.394 277.999 372.637 277.999 372.886C277.756 372.886 277.514 372.886 277.264 372.886C277.264 373.129 277.264 373.371 277.264 373.621C277.022 373.621 276.779 373.621 276.529 373.621C276.529 373.864 276.529 374.106 276.529 374.356C276.287 374.356 276.045 374.356 275.795 374.356C275.795 374.598 275.795 374.841 275.795 375.09C274.392 376.277 272.88 377.328 271.387 378.396C271.064 378.63 270.742 378.863 270.41 379.104C268.27 380.6 268.27 380.6 266.612 380.6C266.612 380.843 266.612 381.085 266.612 381.335C266.127 381.335 265.642 381.335 265.142 381.335C265.142 381.577 265.142 381.82 265.142 382.07C264.415 382.07 263.688 382.07 262.938 382.07C262.938 382.312 262.938 382.555 262.938 382.804C262.084 383.064 261.23 383.308 260.367 383.539C260.124 383.604 259.88 383.67 259.629 383.738C256.902 384.375 254.198 384.373 251.415 384.349C250.6 384.342 249.785 384.342 248.971 384.342C244.994 384.328 244.994 384.328 244.572 383.906C244.117 383.868 243.663 383.831 243.194 383.791C240.166 383.486 237.23 382.589 234.654 380.968C233.199 380.318 231.728 379.715 230.246 379.131C230.246 378.889 230.246 378.646 230.246 378.396C230.004 378.396 229.761 378.396 229.511 378.396C229.511 378.154 229.511 377.911 229.511 377.662C229.249 377.629 228.986 377.596 228.715 377.563C227.47 377.242 226.745 376.716 225.723 375.94C225.371 375.674 225.019 375.408 224.656 375.133C224.319 374.877 223.982 374.62 223.634 374.356C223.358 374.16 223.081 373.964 222.796 373.762C221.314 372.707 220.141 371.606 218.998 370.192C218.436 369.492 218.436 369.492 217.481 368.593C216.74 367.831 216.317 367.249 215.92 366.275C215.678 366.275 215.435 366.275 215.186 366.275C213.716 364.287 213.716 364.287 213.716 363.336C213.474 363.336 213.231 363.336 212.982 363.336C212.982 363.093 212.982 362.851 212.982 362.601C212.739 362.601 212.497 362.601 212.247 362.601C211.863 362 211.498 361.385 211.145 360.765C210.94 360.499 210.736 360.234 210.525 359.961C210.043 359.295 210.043 359.295 210.043 358.561C209.801 358.561 209.558 358.561 209.308 358.561C208.938 357.912 208.572 357.261 208.206 356.609C208.002 356.247 207.797 355.885 207.586 355.511C207.104 354.52 207.104 354.52 207.104 353.418C206.862 353.418 206.619 353.418 206.37 353.418C206.37 353.176 206.37 352.933 206.37 352.683C206.127 352.683 205.885 352.683 205.635 352.683C205.749 353.145 205.862 353.608 205.979 354.084C206.265 355.364 206.448 356.61 206.553 357.918C206.824 361.254 207.298 364.456 208.334 367.643C208.565 368.447 208.679 369.186 208.757 370.017C208.955 371.52 209.427 372.609 210.043 373.988C210.227 374.71 210.41 375.432 210.585 376.155C211.489 379.775 212.776 383.327 213.946 386.868C214.052 387.191 214.158 387.514 214.268 387.847C214.864 389.639 215.529 391.361 216.288 393.089C216.582 393.861 216.873 394.634 217.16 395.408C217.865 397.268 218.668 399.016 219.624 400.759C219.961 401.538 219.961 401.538 219.961 403.007C220.203 403.007 220.446 403.007 220.696 403.007C220.943 403.534 221.187 404.063 221.43 404.591C221.567 404.886 221.703 405.18 221.843 405.483C222.165 406.313 222.165 406.313 222.165 407.415C222.407 407.415 222.65 407.415 222.9 407.415C223.051 407.779 223.203 408.143 223.359 408.517C223.878 409.73 224.448 410.91 225.045 412.086C225.419 412.822 225.789 413.561 226.158 414.3C226.67 415.325 227.184 416.349 227.701 417.372C227.952 417.872 228.204 418.372 228.455 418.871C228.583 419.123 228.71 419.375 228.841 419.634C230.532 423 231.379 426.217 230.365 430.019C230.062 430.718 230.062 430.718 229.511 431.659C229.269 431.659 229.027 431.659 228.777 431.659C228.777 431.901 228.777 432.144 228.777 432.394C220.345 435.681 210.161 433.868 201.962 430.557C201.598 430.436 201.234 430.315 200.86 430.19C200.86 429.947 200.86 429.705 200.86 429.455C200.579 429.402 200.299 429.349 200.01 429.294C199.023 429.088 199.023 429.088 197.921 428.72C197.921 428.478 197.921 428.235 197.921 427.986C197.436 427.986 196.951 427.986 196.452 427.986C196.452 427.743 196.452 427.501 196.452 427.251C196.245 427.216 196.039 427.182 195.826 427.146C194.775 426.819 194.102 426.3 193.238 425.621C192.797 425.281 192.797 425.281 192.348 424.934C192.016 424.626 192.016 424.626 191.677 424.312C191.677 424.07 191.677 423.828 191.677 423.578C191.313 423.457 190.949 423.335 190.575 423.21C187.226 419.593 185.266 414.707 184.149 409.965C184.028 409.255 184.028 409.255 183.595 408.885C183.58 408.273 183.58 407.66 183.595 407.048C183.353 407.048 183.11 407.048 182.861 407.048C182.785 406.681 182.71 406.314 182.633 405.936C182.534 405.462 182.435 404.988 182.333 404.5C182.235 404.027 182.137 403.554 182.036 403.066C181.879 401.962 181.879 401.962 181.391 401.538C181.273 400.687 181.203 399.834 181.127 398.978C181.101 398.235 181.101 398.235 180.657 397.865C179.947 395.418 179.798 392.909 179.68 390.38C179.632 389.38 179.577 388.418 179.368 387.437C179.178 386.428 179.143 385.508 179.146 384.482C179.146 384.092 179.146 383.703 179.146 383.301C179.148 382.885 179.15 382.468 179.152 382.04C179.152 381.395 179.152 381.395 179.153 380.738C179.155 379.368 179.16 377.998 179.164 376.629C179.166 375.699 179.168 374.769 179.169 373.84C179.173 371.563 179.18 369.286 179.187 367.009C178.945 367.009 178.703 367.009 178.453 367.009C178.354 367.219 178.256 367.43 178.154 367.646C177.703 368.507 177.195 369.259 176.616 370.04C176.332 370.429 176.332 370.429 176.042 370.826C175.868 371.021 175.694 371.216 175.514 371.417C175.272 371.417 175.029 371.417 174.779 371.417C174.689 371.682 174.598 371.947 174.504 372.221C173.592 374.271 172.125 375.593 170.371 376.927C170.129 376.927 169.887 376.927 169.637 376.927C169.637 377.169 169.637 377.412 169.637 377.662C169.394 377.662 169.152 377.662 168.902 377.662C168.872 377.874 168.842 378.086 168.81 378.305C168.452 379.38 167.934 379.885 167.066 380.6C166.702 380.6 166.338 380.6 165.964 380.6C165.964 380.843 165.964 381.085 165.964 381.335C165.357 381.577 164.751 381.82 164.127 382.07C164.127 382.312 164.127 382.555 164.127 382.804C162.139 384.274 162.139 384.274 161.188 384.274C161.188 384.516 161.188 384.758 161.188 385.008C155.823 387.871 150.973 389.786 144.773 388.245C141.673 387.281 138.583 385.8 136.21 383.539C136.21 383.297 136.21 383.054 136.21 382.804C135.967 382.804 135.725 382.804 135.475 382.804C135.475 382.562 135.475 382.319 135.475 382.07C135.278 381.994 135.081 381.918 134.878 381.84C133.668 381.139 132.686 380.215 131.802 379.131C131.802 378.889 131.802 378.646 131.802 378.396C131.56 378.396 131.317 378.396 131.067 378.396C131.067 378.154 131.067 377.911 131.067 377.662C130.825 377.662 130.582 377.662 130.333 377.662C129.757 376.977 129.227 376.295 128.703 375.573C128.415 375.185 128.128 374.797 127.832 374.397C125.925 371.688 125.925 371.688 125.925 370.682C125.682 370.682 125.44 370.682 125.19 370.682C124.556 369.905 124.556 369.905 123.859 368.892C123.51 368.393 123.51 368.393 123.155 367.884C122.619 367.009 122.619 367.009 122.619 366.275C122.376 366.275 122.134 366.275 121.884 366.275C121.884 366.032 121.884 365.79 121.884 365.54C121.642 365.54 121.399 365.54 121.149 365.54C121.149 365.297 121.149 365.055 121.149 364.805C120.907 364.805 120.665 364.805 120.415 364.805C120.415 364.563 120.415 364.32 120.415 364.071C120.172 364.071 119.93 364.071 119.68 364.071C119.68 363.828 119.68 363.586 119.68 363.336C119.438 363.336 119.195 363.336 118.945 363.336C118.945 363.093 118.945 362.851 118.945 362.601C118.703 362.601 118.461 362.601 118.211 362.601C118.211 362.359 118.211 362.116 118.211 361.867C117.968 361.867 117.726 361.867 117.476 361.867C117.476 361.624 117.476 361.382 117.476 361.132C117.283 361.047 117.091 360.961 116.892 360.874C115.714 360.24 114.669 359.445 113.596 358.652C111.206 356.913 108.733 355.475 106.089 354.153C106.089 353.91 106.089 353.668 106.089 353.418C105.809 353.365 105.528 353.312 105.24 353.257C104.252 353.051 104.252 353.051 103.15 352.683C103.15 352.441 103.15 352.198 103.15 351.949C102.94 351.907 102.73 351.864 102.513 351.821C101.602 351.559 100.923 351.187 100.12 350.686C99.8604 350.527 99.6009 350.369 99.3336 350.205C99.1385 350.053 98.9434 349.901 98.7424 349.745C98.7424 349.502 98.7424 349.26 98.7424 349.01C98.53 348.968 98.3177 348.925 98.0989 348.881C97.2077 348.624 96.5896 348.269 95.8153 347.762C95.5449 347.586 95.2745 347.409 94.9959 347.228C94.717 347.043 94.4381 346.859 94.1508 346.668C93.8719 346.487 93.593 346.305 93.3057 346.117C90.4792 344.266 90.4792 344.266 89.5592 343.5C89.5592 343.258 89.5592 343.015 89.5592 342.765C89.3168 342.765 89.0743 342.765 88.8245 342.765C88.8245 342.523 88.8245 342.281 88.8245 342.031C88.5821 342.031 88.3397 342.031 88.0899 342.031C88.0899 341.788 88.0899 341.546 88.0899 341.296C87.8474 341.296 87.605 341.296 87.3552 341.296C85.8859 339.697 85.8859 339.697 85.8859 338.358C85.6435 338.358 85.401 338.358 85.1513 338.358C82.0534 334.437 80.7287 328.964 81.1106 324.032C81.5137 321.632 81.9801 319.294 82.9473 317.052C83.1897 317.052 83.4322 317.052 83.6819 317.052C83.6819 316.568 83.6819 316.083 83.6819 315.583C83.9244 315.583 84.1668 315.583 84.4166 315.583C84.4166 315.098 84.4166 314.613 84.4166 314.114C84.659 314.114 84.9015 314.114 85.1513 314.114C85.3937 313.387 85.6361 312.659 85.8859 311.91C86.1283 311.91 86.3708 311.91 86.6206 311.91C86.7115 311.645 86.8024 311.38 86.8961 311.106C87.8075 309.056 89.2754 307.734 91.0285 306.4C91.2709 306.4 91.5134 306.4 91.7632 306.4C91.7632 306.157 91.7632 305.915 91.7632 305.665C92.5308 305.006 93.298 304.39 94.1049 303.783C94.3265 303.611 94.5481 303.439 94.7764 303.262C96.4424 301.992 96.4424 301.992 97.2731 301.992C97.2731 301.75 97.2731 301.507 97.2731 301.257C98.8721 299.788 98.8721 299.788 100.212 299.788C100.212 299.546 100.212 299.303 100.212 299.053C100.454 299.053 100.697 299.053 100.946 299.053C100.946 298.811 100.946 298.568 100.946 298.319C101.674 298.076 102.401 297.834 103.15 297.584C103.15 297.342 103.15 297.099 103.15 296.849C103.878 296.607 104.605 296.365 105.354 296.115C105.354 295.872 105.354 295.63 105.354 295.38C106.082 295.138 106.809 294.895 107.558 294.645C107.558 294.403 107.558 294.161 107.558 293.911C108.043 293.911 108.528 293.911 109.028 293.911C109.028 293.668 109.028 293.426 109.028 293.176C109.851 292.764 110.675 292.353 111.5 291.942C112.399 291.491 113.294 291.036 114.189 290.576C114.711 290.31 115.232 290.044 115.754 289.778C116.005 289.649 116.255 289.519 116.513 289.385C117.81 288.727 118.954 288.226 120.415 288.034C120.415 287.791 120.415 287.549 120.415 287.299C119.972 287.31 119.972 287.31 119.519 287.322C118.578 287.299 118.578 287.299 118.211 286.932C117.662 286.855 117.11 286.797 116.558 286.748C114.946 286.605 114.946 286.605 114.538 286.197C113.965 286.129 113.391 286.078 112.816 286.036C111.318 285.899 110.077 285.615 108.66 285.095C108.103 284.937 107.544 284.785 106.984 284.636C106.637 284.541 106.289 284.446 105.931 284.349C105.213 284.154 104.495 283.96 103.776 283.769C99.7621 282.7 95.9505 281.504 92.1865 279.738C91.2901 279.335 90.5173 279.034 89.5592 278.85C89.5592 278.608 89.5592 278.365 89.5592 278.116C89.1577 278.01 88.7561 277.903 88.3424 277.794C86.9879 277.381 86.9879 277.381 85.8859 276.646C85.8859 276.404 85.8859 276.161 85.8859 275.912C85.6586 275.859 85.4313 275.806 85.1972 275.751C84.4166 275.544 84.4166 275.544 83.6819 275.177C83.6819 274.935 83.6819 274.692 83.6819 274.442C83.4547 274.389 83.2274 274.336 82.9932 274.282C82.2126 274.075 82.2126 274.075 81.478 273.708C81.478 273.465 81.478 273.223 81.478 272.973C81.2715 272.886 81.0651 272.799 80.8524 272.709C79.818 272.132 79.0978 271.425 78.2638 270.585C77.8235 270.148 77.8235 270.148 77.3742 269.702C76.7027 268.932 76.7027 268.932 76.7027 268.198C76.4603 268.198 76.2178 268.198 75.968 268.198C75.968 267.834 75.968 267.47 75.968 267.096C75.7256 267.096 75.4832 267.096 75.2334 267.096C71.9312 262.916 70.4119 256.576 70.8254 251.301C71.1494 249.113 71.8478 247.106 72.6621 245.056C72.7947 244.696 72.9272 244.336 73.0638 243.966C74.2044 240.895 75.5303 237.949 77.1418 235.095C77.7457 233.682 77.1686 232.128 76.7027 230.73C76.4603 230.73 76.2178 230.73 75.968 230.73C75.3857 230.101 74.831 229.446 74.2921 228.779C73.9962 228.417 73.7002 228.054 73.3953 227.681C72.6621 226.69 72.6621 226.69 72.2948 225.588C72.0523 225.588 71.8099 225.588 71.5601 225.588C71.5601 225.345 71.5601 225.103 71.5601 224.853C71.3177 224.853 71.0752 224.853 70.8254 224.853C70.8254 224.611 70.8254 224.368 70.8254 224.118C70.583 224.118 70.3406 224.118 70.0908 224.118C69.4695 223.514 69.4695 223.514 68.7822 222.718C68.5544 222.458 68.3267 222.198 68.092 221.93C67.5195 221.18 67.5195 221.18 67.1521 220.078C66.9097 220.078 66.6673 220.078 66.4175 220.078C65.8182 219.37 65.2651 218.666 64.7186 217.92C64.5642 217.716 64.4099 217.511 64.2508 217.301C63.1115 215.766 63.1115 215.766 63.1115 214.935C62.8691 214.935 62.6267 214.935 62.3769 214.935C62.3769 214.693 62.3769 214.45 62.3769 214.2C62.1344 214.2 61.892 214.2 61.6422 214.2C61.1256 213.516 60.6407 212.807 60.1729 212.088C59.9153 211.696 59.6577 211.304 59.3923 210.9C58.865 210.052 58.39 209.227 57.9689 208.323C57.7265 208.323 57.4841 208.323 57.2343 208.323C56.6804 207.626 56.6804 207.626 56.0864 206.716C55.8884 206.418 55.6905 206.12 55.4866 205.812C55.0303 205.017 55.0303 205.017 55.0303 204.283C54.7879 204.283 54.5454 204.283 54.2956 204.283C52.5876 202.238 51.1638 200.003 49.8877 197.671C49.3978 196.895 48.9022 196.124 48.4012 195.356C48.0511 194.732 48.0511 194.732 48.0511 193.997C47.8086 193.997 47.5662 193.997 47.3164 193.997C46.7831 193.307 46.2829 192.59 45.8012 191.862C45.5351 191.466 45.2689 191.07 44.9948 190.661C44.3778 189.589 44.3778 189.589 44.3778 188.487C44.1353 188.487 43.8929 188.487 43.6431 188.487C43.3964 188.014 43.152 187.539 42.9085 187.064C42.7721 186.8 42.6357 186.536 42.4952 186.263C42.1738 185.549 42.1738 185.549 42.1738 184.814C41.9314 184.814 41.6889 184.814 41.4391 184.814C41.2971 184.552 41.155 184.29 41.0087 184.021C39.7127 181.636 39.7127 181.636 38.3628 179.281C37.7659 178.202 37.7659 178.202 37.7659 177.468C37.5234 177.468 37.281 177.468 37.0312 177.468C36.8797 177.16 36.7282 176.853 36.572 176.536C35.4287 174.232 34.2637 171.946 33.0365 169.685C31.7204 167.254 30.5298 164.772 29.3706 162.263C28.7687 160.968 28.1552 159.699 27.439 158.463C26.0625 156.083 25.0326 153.537 23.991 150.997C23.4298 149.632 22.8327 148.312 22.1544 147.002C21.2435 145.223 20.5338 143.393 19.8328 141.522C19.4648 140.542 19.0824 139.57 18.6877 138.6C17.2605 135.043 15.8422 131.474 14.8236 127.776C14.6763 127.139 14.6763 127.139 14.2568 126.776C14.2418 126.042 14.2412 125.307 14.2568 124.572C14.0144 124.572 13.7719 124.572 13.5222 124.572C12.7791 122.821 12.2772 121.029 11.8003 119.191C11.4069 117.696 11.0196 116.281 10.3999 114.861C9.78379 113.398 9.43461 111.96 9.06831 110.419C8.77939 109.273 8.45291 108.146 8.10792 107.016C6.6009 102.08 5.50564 97.0442 4.50548 91.9829C4.36324 91.2675 4.21471 90.5534 4.06489 89.8396C2.46111 82.1378 1.49576 74.3283 1.15836 66.4689C1.11193 65.4452 1.06103 64.4597 0.843588 63.4565C-1.38549 51.3943 0.96173 33.1553 6.01489 21.8121C6.45386 20.8196 6.75736 19.9126 7.048 18.8734C7.5593 17.0948 8.28136 15.4683 9.08265 13.8026C9.4349 13.0094 9.67165 12.2818 9.84888 11.435C10.0913 11.435 10.3338 11.435 10.5835 11.435C10.5835 10.9502 10.5835 10.4653 10.5835 9.96572C10.826 9.96572 11.0684 9.96572 11.3182 9.96572C11.3182 9.48084 11.3182 8.99597 11.3182 8.4964C11.5606 8.4964 11.8031 8.4964 12.0529 8.4964C12.1438 8.1782 12.2347 7.86 12.3283 7.53216C12.8162 6.21507 13.4069 5.20393 14.2568 4.08846C14.4993 4.08846 14.7417 4.08846 14.9915 4.08846C14.9915 3.84602 14.9915 3.60358 14.9915 3.3538C15.2339 3.3538 15.4764 3.3538 15.7261 3.3538C15.7261 3.11136 15.7261 2.86893 15.7261 2.61914C15.9686 2.61914 16.211 2.61914 16.4608 2.61914C16.4608 2.37671 16.4608 2.13427 16.4608 1.88449C16.7032 1.88449 16.9457 1.88449 17.1955 1.88449C17.1955 1.64205 17.1955 1.39961 17.1955 1.14983C19.5744 0.0684789 22.0088 -0.0158359 24.5879 0.00192641ZM33.84 35.5481C33.237 36.6303 33.1854 37.4534 33.1283 38.6862C33.0215 40.7904 33.0215 40.7904 32.6233 41.1886C32.5463 41.9142 32.4881 42.6417 32.4396 43.3697C32.2963 45.5158 32.2963 45.5158 31.8886 46.3313C31.8533 47.0156 31.8416 47.7013 31.8411 48.3866C31.8399 48.8169 31.8388 49.2472 31.8376 49.6905C31.8383 50.1573 31.839 50.6241 31.8398 51.1051C31.8395 51.5825 31.8391 52.0599 31.8387 52.5517C31.8382 53.563 31.839 54.5743 31.8407 55.5856C31.8428 56.8817 31.8416 58.1779 31.8394 59.474C31.8377 60.7097 31.8389 61.9453 31.8398 63.181C31.8391 63.6471 31.8383 64.1131 31.8376 64.5933C31.8387 65.0248 31.8399 65.4562 31.8411 65.9007C31.8414 66.2811 31.8417 66.6614 31.842 67.0533C31.8479 68.0466 31.8479 68.0466 32.2559 69.1056C32.3511 70.354 32.4183 71.6003 32.4783 72.8507C32.5401 74.0056 32.6228 74.9816 32.9906 76.0849C33.0471 76.8801 33.0913 77.6762 33.1283 78.4725C33.2601 80.5376 33.6075 82.3483 34.2074 84.3211C34.4587 85.2636 34.5703 86.1335 34.6436 87.1047C34.7745 88.8232 35.1927 90.3751 35.6767 92.0249C35.9038 92.8857 36.032 93.682 36.1129 94.5661C36.2211 95.9119 36.2211 95.9119 36.8246 96.9767C37.459 98.2456 37.6859 99.3635 37.9395 100.749C38.4642 103.59 39.0197 106.197 40.3372 108.777C40.5254 109.47 40.6998 110.167 40.8652 110.866C41.3842 113.059 42.1013 115.125 42.9085 117.226C43.5351 118.865 44.1329 120.508 44.6963 122.17C44.8774 122.703 44.8774 122.703 45.0622 123.246C45.3088 123.974 45.5537 124.702 45.7969 125.43C46.5167 127.537 47.3391 129.496 48.4013 131.453C48.8112 132.341 48.9982 133.16 49.153 134.123C49.3955 134.123 49.6379 134.123 49.8877 134.123C49.8877 134.608 49.8877 135.093 49.8877 135.592C50.1301 135.592 50.3726 135.592 50.6224 135.592C50.6224 136.198 50.6224 136.804 50.6224 137.429C50.8648 137.429 51.1072 137.429 51.357 137.429C51.4077 137.643 51.4583 137.857 51.5106 138.077C52.131 140.459 53.1889 142.594 54.2956 144.775C54.5279 145.239 54.7599 145.703 54.9916 146.167C55.3536 146.891 55.7158 147.616 56.0782 148.34C56.6983 149.579 57.317 150.818 57.9316 152.06C58.856 153.924 59.7813 155.78 60.8157 157.586C61.6336 159.025 62.2042 160.477 62.7442 162.04C62.9866 162.04 63.2291 162.04 63.4789 162.04C63.5167 162.237 63.5546 162.434 63.5937 162.637C63.9127 163.739 64.4178 164.698 64.9482 165.713C65.1906 165.713 65.4331 165.713 65.6828 165.713C65.6828 166.077 65.6828 166.44 65.6828 166.815C65.9253 166.815 66.1677 166.815 66.4175 166.815C66.454 167.015 66.4904 167.215 66.528 167.421C66.8525 168.512 67.3716 169.373 67.9557 170.351C68.1858 170.736 68.4159 171.121 68.653 171.519C69.0011 172.1 69.0011 172.1 69.3561 172.692C69.5654 173.057 69.7747 173.422 69.9903 173.797C70.2787 174.296 70.2787 174.296 70.5729 174.804C70.7457 175.106 70.9186 175.407 71.0966 175.717C71.326 176.038 71.326 176.038 71.5601 176.366C71.8025 176.366 72.045 176.366 72.2948 176.366C72.5372 177.093 72.7796 177.82 73.0294 178.57C73.2718 178.57 73.5143 178.57 73.7641 178.57C73.8001 178.776 73.836 178.982 73.8731 179.195C74.1892 180.228 74.6876 180.913 75.3252 181.784C76.3469 183.198 77.2823 184.628 78.1562 186.137C78.2827 186.307 78.4091 186.476 78.5393 186.651C78.7818 186.651 79.0242 186.651 79.274 186.651C79.274 187.014 79.274 187.378 79.274 187.753C79.5164 187.753 79.7589 187.753 80.0087 187.753C80.1678 188.173 80.1678 188.173 80.3301 188.602C80.7296 189.645 80.7296 189.645 81.478 190.691C81.7204 190.691 81.9628 190.691 82.2126 190.691C82.3035 190.888 82.3945 191.085 82.4881 191.288C83.0599 192.375 83.6946 193.372 84.4166 194.365C84.659 194.365 84.9015 194.365 85.1513 194.365C85.2346 194.556 85.3179 194.747 85.4038 194.944C86.0605 196.156 86.8846 197.224 87.7226 198.313C87.9711 198.645 87.9711 198.645 88.2248 198.984C88.6512 199.54 89.1034 200.077 89.5592 200.609C89.8016 200.609 90.0441 200.609 90.2939 200.609C90.3923 200.821 90.4908 201.034 90.5923 201.252C91.0393 202.099 91.5073 202.821 92.1305 203.548C92.3729 203.548 92.6154 203.548 92.8652 203.548C92.8652 203.79 92.8652 204.033 92.8652 204.283C93.1076 204.283 93.35 204.283 93.5998 204.283C93.5998 204.525 93.5998 204.767 93.5998 205.017C93.8422 205.017 94.0847 205.017 94.3345 205.017C94.3345 205.26 94.3345 205.502 94.3345 205.752C94.5769 205.752 94.8193 205.752 95.0691 205.752C95.1615 205.963 95.2538 206.173 95.3489 206.39C95.864 207.331 96.4535 207.994 97.2042 208.759C97.449 209.015 97.6938 209.27 97.9461 209.533C98.8496 210.244 99.4442 210.416 100.579 210.527C101.399 210.392 101.399 210.392 102.048 210.16C102.048 210.402 102.048 210.645 102.048 210.894C103.735 210.726 104.385 210.173 105.469 208.897C105.853 208.455 105.853 208.455 106.245 208.003C106.896 207.285 106.896 207.285 106.824 206.487C107.066 206.487 107.309 206.487 107.558 206.487C108.646 205.152 108.646 205.152 109.028 203.548C109.27 203.548 109.512 203.548 109.762 203.548C110.347 202.732 110.887 201.92 111.415 201.068C111.638 200.719 111.638 200.719 111.864 200.362C113.299 198.254 113.299 198.254 113.803 195.834C114.045 195.834 114.288 195.834 114.538 195.834C114.901 195.232 114.901 195.232 115.272 194.617C115.409 194.391 115.545 194.166 115.685 193.933C116.086 193.221 116.086 193.221 116.007 192.161C116.249 192.161 116.492 192.161 116.742 192.161C116.853 191.952 116.964 191.743 117.079 191.528C117.856 190.096 118.642 188.721 119.611 187.408C120.486 186.414 120.486 186.414 120.415 185.549C120.657 185.549 120.9 185.549 121.149 185.549C121.733 184.919 121.733 184.919 122.297 184.125C122.495 183.861 122.693 183.597 122.897 183.325C123.419 182.648 123.419 182.648 123.353 181.876C123.596 181.876 123.838 181.876 124.088 181.876C124.726 181.231 124.726 181.231 125.374 180.429C126.585 178.974 126.585 178.974 127.394 178.57C127.394 178.327 127.394 178.085 127.394 177.835C127.636 177.835 127.879 177.835 128.129 177.835C129.34 176.017 129.009 174.264 128.65 172.196C127.763 168.157 126.511 164.227 125.254 160.292C124.508 157.948 123.837 155.636 123.353 153.224C123.111 153.224 122.869 153.224 122.619 153.224C122.57 152.965 122.521 152.706 122.471 152.439C122.246 151.363 121.971 150.312 121.677 149.252C121.579 148.894 121.48 148.535 121.378 148.166C121.302 147.896 121.227 147.625 121.149 147.347C120.907 147.347 120.665 147.347 120.415 147.347C120.338 146.944 120.338 146.944 120.26 146.533C119.693 143.801 118.743 141.248 117.645 138.689C117.24 137.737 116.845 136.784 116.457 135.825C116.345 135.547 116.232 135.269 116.116 134.983C115.895 134.437 115.675 133.89 115.456 133.342C114.879 131.926 114.229 130.658 113.436 129.348C113.153 128.649 112.886 127.944 112.632 127.235C111.757 124.896 110.727 122.653 109.644 120.403C109.139 119.352 108.662 118.333 108.293 117.226C108.051 117.226 107.808 117.226 107.558 117.226C107.526 116.981 107.494 116.736 107.461 116.484C107.11 115.059 106.486 113.863 105.813 112.565C105.548 112.043 105.282 111.522 105.016 111C104.821 110.62 104.821 110.62 104.622 110.233C104.124 109.262 103.637 108.285 103.15 107.308C103.006 107.02 102.862 106.732 102.714 106.435C102.616 106.238 102.517 106.041 102.416 105.838C102.173 105.838 101.931 105.838 101.681 105.838C101.681 105.354 101.681 104.869 101.681 104.369C101.439 104.369 101.196 104.369 100.946 104.369C100.863 104.066 100.78 103.763 100.694 103.451C100.21 102.161 99.6143 101.154 98.8701 100.006C98.2156 98.9756 97.6369 97.9104 97.0507 96.8404C96.2376 95.3805 95.3854 93.9436 94.5368 92.5042C94.0715 91.6944 93.6379 90.8842 93.2325 90.0434C92.99 90.0434 92.7476 90.0434 92.4978 90.0434C92.2554 89.3161 92.013 88.5887 91.7632 87.8394C91.5207 87.8394 91.2783 87.8394 91.0285 87.8394C90.9906 87.6348 90.9528 87.4303 90.9137 87.2195C90.6091 86.1949 90.1679 85.4099 89.5592 84.5334C89.3168 84.5334 89.0743 84.5334 88.8245 84.5334C88.745 84.1925 88.745 84.1925 88.6638 83.8447C88.4824 83.0521 88.4824 83.0521 88.0899 82.3295C87.8474 82.3295 87.605 82.3295 87.3552 82.3295C87.1961 81.909 87.1961 81.909 87.0338 81.48C86.6343 80.4376 86.6343 80.4376 85.8859 79.3908C85.6435 79.3908 85.401 79.3908 85.1513 79.3908C85.0056 78.989 85.0056 78.989 84.8571 78.5791C84.1182 76.8599 82.9563 75.4456 81.8453 73.9498C81.6095 73.6252 81.3737 73.3006 81.1307 72.9662C80.9044 72.6596 80.6781 72.353 80.4449 72.0371C80.1345 71.616 80.1345 71.616 79.8178 71.1865C79.6384 70.9847 79.4589 70.7829 79.274 70.5749C79.0316 70.5749 78.7891 70.5749 78.5393 70.5749C78.172 69.8403 77.8047 69.1056 77.4374 68.371C77.1949 68.371 76.9525 68.371 76.7027 68.371C76.7027 68.1285 76.7027 67.8861 76.7027 67.6363C76.4603 67.6363 76.2178 67.6363 75.968 67.6363C75.862 67.4166 75.7559 67.1969 75.6466 66.9705C75.216 66.096 75.216 66.096 74.4987 65.065C74.2563 65.065 74.0138 65.065 73.7641 65.065C73.6732 64.8624 73.5822 64.6597 73.4886 64.4509C72.9404 63.4299 72.2813 62.574 71.5601 61.6672C71.3025 61.3396 71.0449 61.0119 70.7795 60.6743C70.5522 60.4262 70.325 60.1781 70.0908 59.9224C69.8483 59.9224 69.6059 59.9224 69.3561 59.9224C69.3561 59.68 69.3561 59.4375 69.3561 59.1878C69.1137 59.1878 68.8712 59.1878 68.6215 59.1878C68.6215 58.9453 68.6215 58.7029 68.6215 58.4531C68.379 58.4531 68.1366 58.4531 67.8868 58.4531C67.8868 58.2107 67.8868 57.9682 67.8868 57.7184C67.6444 57.7184 67.4019 57.7184 67.1521 57.7184C67.1521 57.476 67.1521 57.2336 67.1521 56.9838C66.9097 56.9838 66.6673 56.9838 66.4175 56.9838C66.4175 56.7413 66.4175 56.4989 66.4175 56.2491C66.1751 56.2491 65.9326 56.2491 65.6828 56.2491C65.3192 55.5218 65.3192 55.5218 64.9482 54.7798C64.7057 54.7798 64.4633 54.7798 64.2135 54.7798C64.0923 54.4162 63.9711 54.0525 63.8462 53.6778C63.6038 53.6778 63.3613 53.6778 63.1115 53.6778C63.1115 53.4354 63.1115 53.193 63.1115 52.9432C62.8691 52.9432 62.6267 52.9432 62.3769 52.9432C62.3769 52.7007 62.3769 52.4583 62.3769 52.2085C62.1344 52.2085 61.892 52.2085 61.6422 52.2085C61.6422 51.9661 61.6422 51.7236 61.6422 51.4739C61.0123 50.8904 61.0123 50.8904 60.2188 50.326C59.9546 50.128 59.6904 49.9301 59.4182 49.7262C58.7417 49.204 58.7417 49.204 57.9689 49.2699C57.9689 49.0274 57.9689 48.785 57.9689 48.5352C57.7265 48.5352 57.4841 48.5352 57.2343 48.5352C57.2343 48.2928 57.2343 48.0504 57.2343 47.8006C55.5878 46.0429 53.4364 44.5869 51.357 43.3926C51.1146 43.3926 50.8721 43.3926 50.6224 43.3926C50.6224 43.1502 50.6224 42.9077 50.6224 42.658C50.3799 42.658 50.1375 42.658 49.8877 42.658C49.8877 42.4155 49.8877 42.1731 49.8877 41.9233C49.524 41.9233 49.1604 41.9233 48.7857 41.9233C48.7857 41.6809 48.7857 41.4384 48.7857 41.1886C47.7517 40.3521 47.7516 40.3521 46.5817 40.454C46.5817 40.2116 46.5817 39.9691 46.5817 39.7193C40.3463 35.3768 40.3463 35.3768 33.84 35.5481ZM258.53 101.431C258.326 101.552 258.121 101.673 257.911 101.798C256.95 102.213 256.26 102.223 255.224 102.165C254.62 103.255 254.334 104.223 254.122 105.448C253.955 106.418 253.773 107.264 253.401 108.177C252.935 109.362 252.698 110.537 252.446 111.785C251.956 114.212 251.956 114.212 251.551 115.022C251.495 115.533 251.451 116.046 251.413 116.56C251.254 118.176 250.722 119.404 250.082 120.899C249.962 121.725 249.897 122.547 249.829 123.378C249.713 124.218 249.49 124.872 249.163 125.651C248.556 127.114 248.423 128.508 248.323 130.081C248.245 130.817 248.245 130.817 247.878 131.184C247.863 132.041 247.862 132.899 247.878 133.755C247.635 133.755 247.393 133.755 247.143 133.755C247.125 134.017 247.107 134.279 247.089 134.549C246.895 137.027 246.458 139.117 245.674 141.469C245.575 142.414 245.511 143.359 245.446 144.306C245.331 145.296 245.167 146.227 244.962 147.2C244.518 149.356 244.25 151.521 243.998 153.706C243.95 154.114 243.903 154.522 243.854 154.942C243.378 159.033 243.378 159.033 243.103 163.142C243.089 163.429 243.075 163.717 243.06 164.013C243.017 165.001 242.989 165.988 242.965 166.976C242.951 167.289 242.937 167.603 242.922 167.926C242.901 169.511 242.975 170.544 243.984 171.81C244.812 172.775 244.812 172.775 245.674 172.692C245.674 172.935 245.674 173.177 245.674 173.427C246.472 174.178 246.472 174.178 247.465 174.942C247.963 175.341 247.963 175.341 248.472 175.749C249.269 176.436 249.269 176.436 250.082 176.366C250.082 176.608 250.082 176.85 250.082 177.1C250.324 177.1 250.567 177.1 250.816 177.1C250.816 177.343 250.816 177.585 250.816 177.835C251.446 178.5 251.446 178.5 252.24 179.166C252.504 179.398 252.768 179.631 253.041 179.87C253.704 180.48 253.704 180.48 254.49 180.406C254.49 180.649 254.49 180.891 254.49 181.141C254.732 181.141 254.975 181.141 255.224 181.141C255.224 181.383 255.224 181.626 255.224 181.876C255.467 181.876 255.709 181.876 255.959 181.876C256.058 182.086 256.156 182.296 256.258 182.513C256.709 183.374 257.217 184.125 257.796 184.906C257.985 185.165 258.175 185.425 258.37 185.692C258.544 185.887 258.718 186.082 258.898 186.283C259.14 186.283 259.383 186.283 259.632 186.283C259.725 186.495 259.817 186.706 259.912 186.923C260.426 187.861 261.014 188.51 261.767 189.268C262.135 189.644 262.135 189.644 262.509 190.028C263.354 190.732 264.107 191.076 265.142 191.426C265.142 191.669 265.142 191.911 265.142 192.161C266.477 193.249 266.477 193.249 268.081 193.63C268.081 193.872 268.081 194.115 268.081 194.365C268.944 194.79 269.809 195.21 270.675 195.627C271.037 195.807 271.037 195.807 271.406 195.99C273.012 196.757 274.389 197.14 276.162 197.303C276.162 197.061 276.162 196.818 276.162 196.569C276.405 196.569 276.647 196.569 276.897 196.569C276.897 196.326 276.897 196.084 276.897 195.834C277.139 195.834 277.382 195.834 277.631 195.834C278.153 195.18 278.153 195.18 278.665 194.342C279.379 193.23 280.105 192.144 280.892 191.082C281.742 190.084 281.742 190.084 281.672 189.222C281.915 189.222 282.157 189.222 282.407 189.222C282.77 188.131 282.77 188.131 283.141 187.018C283.384 187.018 283.626 187.018 283.876 187.018C284.24 185.927 284.24 185.927 284.611 184.814C284.853 184.814 285.096 184.814 285.345 184.814C285.457 184.605 285.568 184.397 285.683 184.181C286.458 182.753 287.239 181.387 288.215 180.085C289.124 179.02 289.124 179.02 289.019 177.835C289.261 177.835 289.504 177.835 289.753 177.835C290.117 176.744 290.117 176.744 290.488 175.631C290.73 175.631 290.973 175.631 291.223 175.631C291.223 175.146 291.223 174.661 291.223 174.162C291.465 174.162 291.708 174.162 291.957 174.162C292.131 173.81 292.305 173.458 292.484 173.096C293.805 170.432 295.149 167.785 296.549 165.162C297.668 163.062 298.765 160.953 299.832 158.826C299.953 158.585 300.074 158.344 300.199 158.096C301.559 155.452 301.559 155.452 301.921 152.558C301.914 152.268 301.908 151.978 301.901 151.679C301.892 151.461 301.884 151.244 301.875 151.02C301.633 151.02 301.39 151.02 301.141 151.02C301.051 150.813 300.961 150.605 300.868 150.391C300.322 149.399 299.664 148.679 298.891 147.852C296.931 145.715 295.037 143.517 293.427 141.102C293.184 141.102 292.942 141.102 292.692 141.102C292.556 140.795 292.556 140.795 292.416 140.482C291.873 139.477 291.247 138.65 290.488 137.796C290.246 137.796 290.003 137.796 289.753 137.796C289.603 137.47 289.603 137.47 289.449 137.138C289.032 136.352 288.593 135.764 288.009 135.097C287.815 134.875 287.622 134.652 287.423 134.423C287.222 134.195 287.022 133.967 286.815 133.733C286.416 133.277 286.018 132.821 285.621 132.365C285.445 132.165 285.269 131.964 285.087 131.758C284.611 131.184 284.611 131.184 283.876 130.082C283.634 130.082 283.391 130.082 283.141 130.082C283.005 129.775 283.005 129.775 282.866 129.462C282.323 128.457 281.696 127.63 280.937 126.776C280.695 126.776 280.453 126.776 280.203 126.776C280.116 126.581 280.029 126.386 279.939 126.185C279.331 125.051 278.585 124.039 277.815 123.011C277.667 122.807 277.519 122.604 277.366 122.394C276.983 121.881 276.574 121.388 276.162 120.899C275.92 120.899 275.677 120.899 275.427 120.899C275.427 120.657 275.427 120.414 275.427 120.164C275.185 120.164 274.943 120.164 274.693 120.164C274.693 119.922 274.693 119.679 274.693 119.43C274.45 119.43 274.208 119.43 273.958 119.43C273.867 119.227 273.776 119.024 273.683 118.816C273.135 117.795 272.475 116.939 271.754 116.032C271.368 115.54 271.368 115.54 270.974 115.039C270.746 114.791 270.519 114.543 270.285 114.287C270.042 114.287 269.8 114.287 269.55 114.287C269.187 113.378 269.187 113.378 268.816 112.45C268.573 112.45 268.331 112.45 268.081 112.45C267.99 112.248 267.899 112.045 267.805 111.836C267.257 110.815 266.598 109.959 265.877 109.053C265.619 108.725 265.362 108.397 265.096 108.06C264.755 107.688 264.755 107.688 264.408 107.308C264.165 107.308 263.923 107.308 263.673 107.308C263.574 107.096 263.476 106.884 263.375 106.665C262.928 105.818 262.46 105.096 261.836 104.369C261.594 104.369 261.351 104.369 261.102 104.369C261.011 104.142 260.92 103.915 260.826 103.68C260.285 102.761 259.849 102.595 258.898 102.165C258.716 101.802 258.716 101.802 258.53 101.431ZM187.269 215.302C187.31 215.907 187.357 216.512 187.406 217.116C187.432 217.453 187.457 217.789 187.484 218.136C187.534 218.413 187.584 218.69 187.636 218.976C187.878 219.097 188.121 219.218 188.371 219.343C188.249 218.01 188.128 216.676 188.003 215.302C187.761 215.302 187.518 215.302 187.269 215.302Z" fill="#06C149"/>
</svg>
