<svg width="24" height="24" viewBox="0 0 24 24" fill="none" xmlns="http://www.w3.org/2000/svg">
    <path d="M14.995 20.9925V12.9953C14.995 12.7301 14.8897 12.4759 14.7022 12.2884C14.5147 12.1009 14.2605 11.9956 13.9953 11.9956H9.99672C9.7316 11.9956 9.47733 12.1009 9.28986 12.2884C9.10239 12.4759 8.99707 12.7301 8.99707 12.9953V20.9925" stroke="#00C950" stroke-width="1.9993" stroke-linecap="round" stroke-linejoin="round"/>
    <path d="M2.99902 9.99669C2.99895 9.70586 3.06234 9.41852 3.18475 9.1547C3.30716 8.89089 3.48565 8.65696 3.70778 8.46923L10.7053 2.47232C11.0662 2.16733 11.5234 2 11.9959 2C12.4684 2 12.9256 2.16733 13.2864 2.47232L20.284 8.46923C20.5061 8.65696 20.6846 8.89089 20.807 9.1547C20.9294 9.41852 20.9928 9.70586 20.9928 9.99669V18.9936C20.9928 19.5238 20.7821 20.0323 20.4072 20.4073C20.0322 20.7822 19.5237 20.9929 18.9935 20.9929H4.99833C4.46808 20.9929 3.95955 20.7822 3.58461 20.4073C3.20966 20.0323 2.99902 19.5238 2.99902 18.9936V9.99669Z" stroke="#00C950" stroke-width="1.9993" stroke-linecap="round" stroke-linejoin="round"/>
</svg>
