<svg width="84" height="84" viewBox="0 0 84 84" fill="none" xmlns="http://www.w3.org/2000/svg">
    <path d="M6.99805 27.9932V20.9949C6.99805 19.1388 7.73537 17.3588 9.04781 16.0463C10.3602 14.7339 12.1403 13.9966 13.9964 13.9966H69.9829C71.839 13.9966 73.619 14.7339 74.9315 16.0463C76.2439 17.3588 76.9812 19.1388 76.9812 20.9949V62.9848C76.9812 64.8409 76.2439 66.6209 74.9315 67.9334C73.619 69.2458 71.839 69.9831 69.9829 69.9831H48.9879" stroke="#059669" stroke-width="6.99832" stroke-linecap="round" stroke-linejoin="round"/>
    <path d="M6.99805 41.9899C14.1621 42.7501 20.849 45.9437 25.9432 51.0379C31.0375 56.1322 34.2311 62.819 34.9913 69.9831" stroke="#059669" stroke-width="6.99832" stroke-linecap="round" stroke-linejoin="round"/>
    <path d="M6.99805 55.9866C10.4715 56.6335 13.6677 58.3169 16.166 60.8152C18.6644 63.3135 20.3478 66.5098 20.9947 69.9832" stroke="#059669" stroke-width="6.99832" stroke-linecap="round" stroke-linejoin="round"/>
    <path d="M6.99805 69.9832H7.03304" stroke="#059669" stroke-width="6.99832" stroke-linecap="round" stroke-linejoin="round"/>
</svg>
