<svg width="80" height="80" viewBox="0 0 80 80" fill="none" xmlns="http://www.w3.org/2000/svg">
    <path d="M38.4129 7.64926C38.559 7.35416 38.7846 7.10576 39.0643 6.93208C39.3441 6.75841 39.6668 6.66638 39.9961 6.66638C40.3253 6.66638 40.6481 6.75841 40.9278 6.93208C41.2075 7.10576 41.4332 7.35416 41.5792 7.64926L49.2785 23.2443C49.7857 24.2708 50.5344 25.1588 51.4603 25.8322C52.3863 26.5057 53.4618 26.9443 54.5946 27.1106L71.8128 29.6303C72.1391 29.6776 72.4456 29.8152 72.6977 30.0276C72.9498 30.24 73.1374 30.5187 73.2394 30.8322C73.3414 31.1457 73.3536 31.4815 73.2746 31.8016C73.1957 32.1216 73.0288 32.4132 72.7927 32.6434L60.3407 44.7688C59.5195 45.569 58.905 46.5569 58.5503 47.6473C58.1955 48.7376 58.1111 49.8979 58.3042 51.0282L61.2439 68.1597C61.3015 68.4858 61.2663 68.8215 61.1422 69.1286C61.0182 69.4356 60.8104 69.7016 60.5425 69.8962C60.2745 70.0908 59.9573 70.2062 59.627 70.2292C59.2966 70.2522 58.9665 70.1818 58.6742 70.0262L43.2824 61.9337C42.2682 61.4012 41.1399 61.1229 39.9944 61.1229C38.8489 61.1229 37.7206 61.4012 36.7064 61.9337L21.318 70.0262C21.0258 70.1809 20.696 70.2505 20.3663 70.227C20.0365 70.2036 19.7199 70.0881 19.4525 69.8936C19.1851 69.6991 18.9777 69.4336 18.8538 69.127C18.7299 68.8205 18.6944 68.4854 18.7516 68.1597L21.6879 51.0315C21.8819 49.9007 21.7979 48.7397 21.4431 47.6487C21.0883 46.5576 20.4734 45.5692 19.6515 44.7688L7.19943 32.6467C6.96144 32.4168 6.79279 32.1247 6.71269 31.8037C6.6326 31.4827 6.64428 31.1456 6.74641 30.8309C6.84854 30.5161 7.03701 30.2364 7.29035 30.0236C7.54369 29.8107 7.85171 29.6733 8.17933 29.627L25.3942 27.1106C26.5283 26.9456 27.6053 26.5075 28.5325 25.834C29.4598 25.1605 30.2094 24.2718 30.717 23.2443L38.4129 7.64926Z" stroke="#047857" stroke-width="6.66598" stroke-linecap="round" stroke-linejoin="round"/>
</svg>
