<svg width="25" height="25" viewBox="0 0 25 25" fill="none" xmlns="http://www.w3.org/2000/svg">
    <g clip-path="url(#clip0_97_246)">
        <path d="M24.3511 12.1768C24.3511 18.2547 19.8985 23.2923 14.078 24.2056V15.6966H16.915L17.4548 12.1768H14.078V9.89267C14.078 8.92947 14.5498 7.991 16.0622 7.991H17.5975V4.99438C17.5975 4.99438 16.2039 4.75655 14.8718 4.75655C12.0909 4.75655 10.2731 6.44227 10.2731 9.49407V12.1768H7.18167V15.6966H10.2731V24.2056C4.45264 23.2923 0 18.2547 0 12.1768C0 5.45196 5.45141 0 12.1755 0C18.8997 0 24.3511 5.45196 24.3511 12.1768Z" fill="#1877F2"/>
        <path d="M16.9149 15.6967L17.4548 12.1768H14.0779V9.89267C14.0779 8.9297 14.5497 7.99104 16.0621 7.99104H17.5974V4.99442C17.5974 4.99442 16.2041 4.75659 14.872 4.75659C12.0908 4.75659 10.2731 6.44231 10.2731 9.49411V12.1768H7.18164V15.6967H10.2731V24.2056C10.893 24.3029 11.5283 24.3536 12.1755 24.3536C12.8227 24.3536 13.458 24.3029 14.0779 24.2056V15.6967H16.9149Z" fill="white"/>
    </g>
    <defs>
        <clipPath id="clip0_97_246">
            <rect width="24.3511" height="24.3535" fill="white"/>
        </clipPath>
    </defs>
</svg>
