<svg width="25" height="25" viewBox="0 0 25 25" fill="none" xmlns="http://www.w3.org/2000/svg">
    <path d="M23.4318 10.0596L13.4992 10.0591C13.0606 10.0591 12.7051 10.4146 12.7051 10.8532V14.0266C12.7051 14.4651 13.0606 14.8207 13.4992 14.8207H19.0926C18.4801 16.4104 17.3369 17.7417 15.8784 18.5876L18.2635 22.7167C22.0893 20.5038 24.3512 16.6211 24.3512 12.2747C24.3512 11.6558 24.3056 11.2134 24.2144 10.7152C24.145 10.3368 23.8165 10.0596 23.4318 10.0596Z" fill="#167EE6"/>
    <path d="M12.1757 19.5887C9.43834 19.5887 7.0487 18.093 5.76527 15.8796L1.63672 18.2595C3.73771 21.9012 7.67355 24.3536 12.1757 24.3536C14.3842 24.3536 16.4682 23.7589 18.2634 22.7225V22.7168L15.8784 18.5876C14.7874 19.2204 13.525 19.5887 12.1757 19.5887Z" fill="#12B347"/>
    <path d="M18.2636 22.7225V22.7168L15.8785 18.5876C14.7876 19.2204 13.5252 19.5888 12.1758 19.5888V24.3536C14.3844 24.3536 16.4684 23.7589 18.2636 22.7225Z" fill="#0F993E"/>
    <path d="M4.76435 12.1767C4.76435 10.8273 5.13256 9.56489 5.76517 8.47389L1.63661 6.09399C0.594604 7.88374 0 9.96226 0 12.1767C0 14.3912 0.594604 16.4697 1.63661 18.2594L5.76517 15.8795C5.13256 14.7885 4.76435 13.5261 4.76435 12.1767Z" fill="#FFD500"/>
    <path d="M12.1757 4.76482C13.9607 4.76482 15.6003 5.39916 16.8809 6.4543C17.1969 6.71458 17.6561 6.69579 17.9455 6.40636L20.1937 4.15794C20.522 3.82954 20.4986 3.29201 20.1479 2.98768C18.0022 1.12602 15.2104 0 12.1757 0C7.67355 0 3.73771 2.45233 1.63672 6.09404L5.76527 8.47393C7.0487 6.26057 9.43834 4.76482 12.1757 4.76482Z" fill="#FF4B26"/>
    <path d="M16.8811 6.4543C17.197 6.71458 17.6563 6.69579 17.9456 6.40636L20.1938 4.15794C20.5221 3.82955 20.4987 3.29201 20.148 2.98768C18.0023 1.12597 15.2105 0 12.1758 0V4.76483C13.9607 4.76483 15.6004 5.39916 16.8811 6.4543Z" fill="#D93F21"/>
</svg>
