<svg width="25" height="25" viewBox="0 0 25 25" fill="none" xmlns="http://www.w3.org/2000/svg">
    <g clip-path="url(#clip0_97_260)">
        <path d="M3.25256 8.95246C1.19389 12.5252 2.50262 17.9471 4.77916 21.2346C5.91553 22.8782 7.06602 24.3535 8.6418 24.3535C8.67148 24.3535 8.7013 24.353 8.73179 24.3518C9.47212 24.3222 10.0071 24.0943 10.5244 23.874C11.1053 23.6265 11.7059 23.3706 12.6479 23.3706C13.5441 23.3706 14.1161 23.6182 14.6693 23.8575C15.2145 24.0934 15.776 24.3374 16.6056 24.3219C18.3807 24.2888 19.4705 22.6968 20.432 21.2924C21.4353 19.826 21.9386 18.4022 22.1085 17.8581L22.1153 17.8365C22.1309 17.7898 22.1287 17.739 22.1091 17.6938C22.0896 17.6486 22.054 17.6123 22.0093 17.5917C22.0067 17.5905 21.9973 17.5866 21.9946 17.5855C21.6821 17.4576 18.9403 16.2412 18.9114 12.9256C18.8846 10.2318 20.9683 8.80534 21.3862 8.54678L21.4057 8.53465C21.4281 8.52023 21.4474 8.50144 21.4625 8.47941C21.4775 8.45739 21.4879 8.43256 21.4932 8.40641C21.4985 8.38029 21.4985 8.35337 21.4932 8.32724C21.4879 8.30111 21.4775 8.27631 21.4625 8.2543C20.0242 6.14933 17.8198 5.83212 16.9324 5.79397C16.801 5.78102 16.6691 5.77457 16.5371 5.77466C15.4948 5.77466 14.4961 6.16841 13.6939 6.48476C13.1401 6.70314 12.6619 6.89173 12.3319 6.89173C11.9612 6.89173 11.4802 6.70081 10.9231 6.47982C10.1783 6.18415 9.33396 5.8491 8.44015 5.8491C8.41884 5.8491 8.39782 5.84934 8.37718 5.84972C6.29891 5.88025 4.33518 7.06934 3.25256 8.95246Z" fill="#D6D5D8"/>
        <path d="M16.9343 0.000151309C15.6757 0.0514269 14.1662 0.826173 13.2637 1.88322C12.4968 2.7717 11.7477 4.25303 11.9451 5.74616C11.9511 5.7915 11.9725 5.83341 12.0057 5.86486C12.0389 5.89632 12.0819 5.91542 12.1275 5.91896C12.2123 5.92557 12.2992 5.92895 12.3854 5.92905C13.6161 5.92905 14.9436 5.24819 15.8501 4.15186C16.8042 2.99421 17.2867 1.5086 17.1408 0.177856C17.1295 0.0735448 17.0376 -0.00389176 16.9343 0.000151309Z" fill="#D6D5D8"/>
    </g>
    <defs>
        <clipPath id="clip0_97_260">
            <rect width="24.3511" height="24.3535" fill="white"/>
        </clipPath>
    </defs>
</svg>
