<svg width="20" height="20" viewBox="0 0 20 20" fill="none" xmlns="http://www.w3.org/2000/svg">
    <g clip-path="url(#clip0_97_288)">
        <path d="M18.33 14.0972V16.5968C18.3309 16.8288 18.2834 17.0585 18.1904 17.2711C18.0974 17.4837 17.9611 17.6745 17.7901 17.8314C17.6191 17.9883 17.4173 18.1077 17.1975 18.182C16.9777 18.2564 16.7447 18.284 16.5136 18.2631C13.9498 17.9845 11.4871 17.1084 9.32338 15.7053C7.3103 14.4261 5.60356 12.7193 4.32436 10.7062C2.91629 8.53267 2.04001 6.05798 1.76653 3.48265C1.74571 3.25225 1.77309 3.02004 1.84693 2.80081C1.92077 2.58157 2.03945 2.38011 2.19542 2.20925C2.35138 2.0384 2.54121 1.90189 2.75283 1.80841C2.96444 1.71494 3.1932 1.66656 3.42454 1.66634H5.92405C6.32839 1.66236 6.72039 1.80555 7.02697 2.06921C7.33355 2.33287 7.5338 2.69901 7.59039 3.09939C7.69589 3.89929 7.89154 4.68469 8.17361 5.4406C8.28571 5.73881 8.30997 6.06291 8.24352 6.37449C8.17707 6.68606 8.02269 6.97206 7.79868 7.19859L6.74056 8.25672C7.92662 10.3426 9.6537 12.0697 11.7396 13.2557L12.7977 12.1976C13.0242 11.9736 13.3102 11.8192 13.6218 11.7528C13.9334 11.6863 14.2575 11.7106 14.5557 11.8227C15.3116 12.1048 16.097 12.3004 16.8969 12.4059C17.3016 12.463 17.6713 12.6669 17.9355 12.9787C18.1997 13.2906 18.3401 13.6886 18.33 14.0972Z" stroke="#99A1AF" stroke-width="1.66634" stroke-linecap="round" stroke-linejoin="round"/>
    </g>
    <defs>
        <clipPath id="clip0_97_288">
            <rect width="19.9961" height="19.9961" fill="white"/>
        </clipPath>
    </defs>
</svg>
